<svg width="200" height="60" viewBox="0 0 200 60" fill="none" xmlns="http://www.w3.org/2000/svg">
  <!-- File Icon -->
  <g transform="translate(0, 10)">
    <svg width="40" height="40" viewBox="0 0 16 16" fill="none">
      <path d="M14.5 13.5V5.41a1 1 0 0 0-.3-.7L9.8.29A1 1 0 0 0 9.08 0H1.5v13.5A2.5 2.5 0 0 0 4 16h8a2.5 2.5 0 0 0 2.5-2.5m-1.5 0v-7H8v-5H3v12a1 1 0 0 0 1 1h8a1 1 0 0 0 1-1M9.5 5V2.12L12.38 5zM5.13 5h-.62v1.25h2.12V5zm-.62 3h7.12v1.25H4.5zm.62 3h-.62v1.25h7.12V11z" clip-rule="evenodd" fill="#1e40af" fill-rule="evenodd"/>
    </svg>
  </g>
  
  <!-- Text -->
  <g transform="translate(50, 0)">
    <text x="0" y="35" font-family="Arial, sans-serif" font-size="24" font-weight="700" fill="#1e40af">ImagePDFly</text>
  </g>
</svg>